<mxfile host="app.diagrams.net" agent="Mozilla/5.0 (Windows NT 10.0; Win64; x64) AppleWebKit/537.36 (KHTML, like Gecko) Chrome/134.0.0.0 Safari/537.36" version="26.1.2">
  <diagram name="Página-1" id="8WbBfZupA4y9QHdg4unH">
    <mxGraphModel dx="1502" dy="1744" grid="1" gridSize="10" guides="1" tooltips="1" connect="1" arrows="1" fold="1" page="1" pageScale="1" pageWidth="827" pageHeight="1169" math="0" shadow="0">
      <root>
        <mxCell id="0" />
        <mxCell id="1" parent="0" />
        <mxCell id="eBv_936KXefOByxpci5f-3" value="" style="rounded=0;whiteSpace=wrap;html=1;" parent="1" vertex="1">
          <mxGeometry x="310" y="430" width="140" height="90" as="geometry" />
        </mxCell>
        <mxCell id="eBv_936KXefOByxpci5f-4" value="principal" style="text;html=1;align=center;verticalAlign=middle;whiteSpace=wrap;rounded=0;" parent="1" vertex="1">
          <mxGeometry x="350" y="460" width="60" height="30" as="geometry" />
        </mxCell>
        <mxCell id="6psfAISW62F539bhXHj2-19" style="edgeStyle=orthogonalEdgeStyle;rounded=0;orthogonalLoop=1;jettySize=auto;html=1;entryX=0.5;entryY=0;entryDx=0;entryDy=0;" edge="1" parent="1" source="eBv_936KXefOByxpci5f-5" target="6psfAISW62F539bhXHj2-6">
          <mxGeometry relative="1" as="geometry" />
        </mxCell>
        <mxCell id="eBv_936KXefOByxpci5f-5" value="" style="rounded=0;whiteSpace=wrap;html=1;" parent="1" vertex="1">
          <mxGeometry x="130" y="160" width="130" height="90" as="geometry" />
        </mxCell>
        <mxCell id="eBv_936KXefOByxpci5f-6" value="Professor.c" style="text;html=1;align=center;verticalAlign=middle;whiteSpace=wrap;rounded=0;" parent="1" vertex="1">
          <mxGeometry x="165" y="190" width="60" height="30" as="geometry" />
        </mxCell>
        <mxCell id="6psfAISW62F539bhXHj2-16" style="edgeStyle=orthogonalEdgeStyle;rounded=0;orthogonalLoop=1;jettySize=auto;html=1;entryX=1;entryY=0.5;entryDx=0;entryDy=0;" edge="1" parent="1" source="eBv_936KXefOByxpci5f-7" target="6psfAISW62F539bhXHj2-5">
          <mxGeometry relative="1" as="geometry" />
        </mxCell>
        <mxCell id="6psfAISW62F539bhXHj2-25" style="edgeStyle=orthogonalEdgeStyle;rounded=0;orthogonalLoop=1;jettySize=auto;html=1;entryX=0.5;entryY=1;entryDx=0;entryDy=0;" edge="1" parent="1" source="eBv_936KXefOByxpci5f-7" target="6psfAISW62F539bhXHj2-23">
          <mxGeometry relative="1" as="geometry" />
        </mxCell>
        <mxCell id="eBv_936KXefOByxpci5f-7" value="" style="rounded=0;whiteSpace=wrap;html=1;" parent="1" vertex="1">
          <mxGeometry x="620" y="170" width="130" height="90" as="geometry" />
        </mxCell>
        <mxCell id="eBv_936KXefOByxpci5f-8" value="Exercício.c" style="text;html=1;align=center;verticalAlign=middle;whiteSpace=wrap;rounded=0;" parent="1" vertex="1">
          <mxGeometry x="650" y="200" width="60" height="30" as="geometry" />
        </mxCell>
        <mxCell id="6psfAISW62F539bhXHj2-22" style="edgeStyle=orthogonalEdgeStyle;rounded=0;orthogonalLoop=1;jettySize=auto;html=1;entryX=0.5;entryY=0;entryDx=0;entryDy=0;" edge="1" parent="1" source="eBv_936KXefOByxpci5f-9" target="6psfAISW62F539bhXHj2-21">
          <mxGeometry relative="1" as="geometry" />
        </mxCell>
        <mxCell id="eBv_936KXefOByxpci5f-9" value="" style="rounded=0;whiteSpace=wrap;html=1;" parent="1" vertex="1">
          <mxGeometry x="670" y="550" width="130" height="90" as="geometry" />
        </mxCell>
        <mxCell id="eBv_936KXefOByxpci5f-10" value="Aluno.c" style="text;html=1;align=center;verticalAlign=middle;whiteSpace=wrap;rounded=0;" parent="1" vertex="1">
          <mxGeometry x="705" y="580" width="60" height="30" as="geometry" />
        </mxCell>
        <mxCell id="6psfAISW62F539bhXHj2-5" value="" style="rounded=0;whiteSpace=wrap;html=1;" vertex="1" parent="1">
          <mxGeometry x="380" y="170" width="130" height="90" as="geometry" />
        </mxCell>
        <mxCell id="6psfAISW62F539bhXHj2-15" style="edgeStyle=orthogonalEdgeStyle;rounded=0;orthogonalLoop=1;jettySize=auto;html=1;entryX=0;entryY=0.5;entryDx=0;entryDy=0;" edge="1" parent="1" source="6psfAISW62F539bhXHj2-6" target="eBv_936KXefOByxpci5f-3">
          <mxGeometry relative="1" as="geometry" />
        </mxCell>
        <mxCell id="6psfAISW62F539bhXHj2-6" value="" style="rounded=0;whiteSpace=wrap;html=1;" vertex="1" parent="1">
          <mxGeometry x="120" y="330" width="130" height="90" as="geometry" />
        </mxCell>
        <mxCell id="6psfAISW62F539bhXHj2-12" style="edgeStyle=orthogonalEdgeStyle;rounded=0;orthogonalLoop=1;jettySize=auto;html=1;entryX=0.5;entryY=1;entryDx=0;entryDy=0;" edge="1" parent="1" source="6psfAISW62F539bhXHj2-7" target="eBv_936KXefOByxpci5f-3">
          <mxGeometry relative="1" as="geometry" />
        </mxCell>
        <mxCell id="6psfAISW62F539bhXHj2-7" value="" style="rounded=0;whiteSpace=wrap;html=1;" vertex="1" parent="1">
          <mxGeometry x="490" y="550" width="130" height="90" as="geometry" />
        </mxCell>
        <mxCell id="6psfAISW62F539bhXHj2-10" value="Aluno.h" style="text;html=1;align=center;verticalAlign=middle;whiteSpace=wrap;rounded=0;" vertex="1" parent="1">
          <mxGeometry x="525" y="585" width="60" height="30" as="geometry" />
        </mxCell>
        <mxCell id="6psfAISW62F539bhXHj2-11" style="edgeStyle=orthogonalEdgeStyle;rounded=0;orthogonalLoop=1;jettySize=auto;html=1;entryX=1.023;entryY=0.602;entryDx=0;entryDy=0;entryPerimeter=0;" edge="1" parent="1" source="eBv_936KXefOByxpci5f-9" target="6psfAISW62F539bhXHj2-7">
          <mxGeometry relative="1" as="geometry" />
        </mxCell>
        <mxCell id="6psfAISW62F539bhXHj2-13" value="Porfessor.h" style="text;html=1;align=center;verticalAlign=middle;whiteSpace=wrap;rounded=0;" vertex="1" parent="1">
          <mxGeometry x="155" y="360" width="60" height="30" as="geometry" />
        </mxCell>
        <mxCell id="6psfAISW62F539bhXHj2-18" style="edgeStyle=orthogonalEdgeStyle;rounded=0;orthogonalLoop=1;jettySize=auto;html=1;entryX=0.023;entryY=0.389;entryDx=0;entryDy=0;entryPerimeter=0;" edge="1" parent="1" source="eBv_936KXefOByxpci5f-5" target="6psfAISW62F539bhXHj2-5">
          <mxGeometry relative="1" as="geometry" />
        </mxCell>
        <mxCell id="6psfAISW62F539bhXHj2-20" value="Exercício.h" style="text;html=1;align=center;verticalAlign=middle;whiteSpace=wrap;rounded=0;" vertex="1" parent="1">
          <mxGeometry x="415" y="200" width="60" height="30" as="geometry" />
        </mxCell>
        <mxCell id="6psfAISW62F539bhXHj2-21" value="" style="ellipse;whiteSpace=wrap;html=1;aspect=fixed;" vertex="1" parent="1">
          <mxGeometry x="660" y="730" width="140" height="140" as="geometry" />
        </mxCell>
        <mxCell id="6psfAISW62F539bhXHj2-23" value="" style="ellipse;whiteSpace=wrap;html=1;aspect=fixed;" vertex="1" parent="1">
          <mxGeometry x="610" y="-110" width="140" height="140" as="geometry" />
        </mxCell>
        <mxCell id="6psfAISW62F539bhXHj2-24" value="" style="ellipse;whiteSpace=wrap;html=1;aspect=fixed;" vertex="1" parent="1">
          <mxGeometry x="140" y="-110" width="140" height="140" as="geometry" />
        </mxCell>
        <mxCell id="6psfAISW62F539bhXHj2-26" style="edgeStyle=orthogonalEdgeStyle;rounded=0;orthogonalLoop=1;jettySize=auto;html=1;entryX=0.45;entryY=0.974;entryDx=0;entryDy=0;entryPerimeter=0;" edge="1" parent="1" source="eBv_936KXefOByxpci5f-5" target="6psfAISW62F539bhXHj2-24">
          <mxGeometry relative="1" as="geometry" />
        </mxCell>
        <mxCell id="6psfAISW62F539bhXHj2-27" value="Exercício.h" style="text;html=1;align=center;verticalAlign=middle;whiteSpace=wrap;rounded=0;" vertex="1" parent="1">
          <mxGeometry x="650" y="-70" width="60" height="30" as="geometry" />
        </mxCell>
        <mxCell id="6psfAISW62F539bhXHj2-28" value="Exercício.h" style="text;html=1;align=center;verticalAlign=middle;whiteSpace=wrap;rounded=0;" vertex="1" parent="1">
          <mxGeometry x="650" y="-100" width="60" height="30" as="geometry" />
        </mxCell>
        <mxCell id="6psfAISW62F539bhXHj2-29" value="Exercício.h" style="text;html=1;align=center;verticalAlign=middle;whiteSpace=wrap;rounded=0;" vertex="1" parent="1">
          <mxGeometry x="180" y="-60" width="60" height="30" as="geometry" />
        </mxCell>
        <mxCell id="6psfAISW62F539bhXHj2-30" value="Exercício.h" style="text;html=1;align=center;verticalAlign=middle;whiteSpace=wrap;rounded=0;" vertex="1" parent="1">
          <mxGeometry x="180" y="-100" width="60" height="30" as="geometry" />
        </mxCell>
        <mxCell id="6psfAISW62F539bhXHj2-31" value="Exercício.h" style="text;html=1;align=center;verticalAlign=middle;whiteSpace=wrap;rounded=0;" vertex="1" parent="1">
          <mxGeometry x="650" y="-30" width="60" height="30" as="geometry" />
        </mxCell>
        <mxCell id="6psfAISW62F539bhXHj2-32" value="Exercício.h" style="text;html=1;align=center;verticalAlign=middle;whiteSpace=wrap;rounded=0;" vertex="1" parent="1">
          <mxGeometry x="700" y="800" width="60" height="30" as="geometry" />
        </mxCell>
        <mxCell id="6psfAISW62F539bhXHj2-33" value="Exercício.h" style="text;html=1;align=center;verticalAlign=middle;whiteSpace=wrap;rounded=0;" vertex="1" parent="1">
          <mxGeometry x="700" y="770" width="60" height="30" as="geometry" />
        </mxCell>
        <mxCell id="6psfAISW62F539bhXHj2-34" value="Exercício.h" style="text;html=1;align=center;verticalAlign=middle;whiteSpace=wrap;rounded=0;" vertex="1" parent="1">
          <mxGeometry x="700" y="740" width="60" height="30" as="geometry" />
        </mxCell>
      </root>
    </mxGraphModel>
  </diagram>
</mxfile>
